<svg width="990" height="279" viewBox="0 0 990 279" fill="none" xmlns="http://www.w3.org/2000/svg">
<path d="M234.789 64.1926L139.25 7.77425C130.264 2.44309 119.08 2.44309 110.094 7.77425L14.5553 64.1926C5.54702 69.5011 0 79.3491 0 89.9963V202.84C0 213.488 5.54702 223.328 14.5855 228.637C14.5855 228.637 62.3927 256.891 90.3847 273.397C98.7808 278.374 109.187 272.643 110.064 263.044L110.139 261.71V99.5502L124.695 90.9615L139.25 99.5502V261.71L139.326 263.044C140.225 272.621 150.608 278.351 158.997 273.397L234.811 228.637C243.888 223.2 249.427 213.405 249.389 202.84V89.9963C249.367 79.3491 243.797 69.5011 234.789 64.1926ZM86.1451 242.557L26.5713 207.372C24.9767 206.407 24.0018 204.68 24.0169 202.818V153.45C24.0169 151.587 24.9843 149.861 26.5713 148.888L86.1527 113.711V242.564L86.1451 242.557ZM23.9943 122.081V90.0038C23.9943 88.1338 24.9616 86.3844 26.5486 85.4418L122.087 29.016C123.667 28.0885 125.624 28.0885 127.204 29.016L222.742 85.4418C224.345 86.407 225.319 88.1413 225.304 90.0038V122.081L124.672 62.6166L23.9943 122.081ZM225.35 202.84C225.35 204.711 224.382 206.46 222.788 207.403L163.214 242.557V113.734L222.788 148.911C224.375 149.861 225.357 151.603 225.357 153.473L225.35 202.84ZM457.645 163.305C454.448 171.027 450.072 177.406 444.525 182.443C438.668 187.903 431.806 192.178 424.325 195.036C416.586 198.06 407.925 199.575 398.328 199.575H370.305V180.43H398.071C404.464 180.43 410.276 179.42 415.49 177.414C420.41 175.483 424.876 172.573 428.617 168.848C432.35 165.115 435.268 160.659 437.202 155.75C439.22 150.705 440.225 145.17 440.225 139.123C440.225 133.241 439.22 127.789 437.202 122.752C435.184 117.549 432.32 113.266 428.617 109.903C425.254 106.382 420.879 103.524 415.49 101.345C409.913 99.2938 404.011 98.2683 398.071 98.3211H370.305V79.1756H398.328C407.245 79.1756 415.83 80.7667 424.075 83.9639C431.723 86.7539 438.691 91.1349 444.525 96.8054C450.306 102.106 454.795 108.652 457.645 115.951C460.796 123.446 462.428 131.499 462.443 139.628C462.443 148.36 460.849 156.247 457.645 163.305ZM510.402 79.4245H486.929L533.882 152.221V199.824H556.856V151.716L510.402 79.4245ZM604.059 79.4245H582.097L554.332 118.975L566.696 135.594L604.059 79.4245ZM622.483 199.575H643.44V135.345L622.483 105.877V199.575ZM706.293 79.6809V162.551L646.969 79.6809H624.259L709.581 199.575H726.993V79.6809H706.293ZM759.05 79.6809H848.921V98.8187H759.05V79.6809ZM759.05 180.422H848.664V199.575H759.05V180.422ZM759.05 129.546H840.087V148.443H759.05V129.546ZM921.871 169.851L933.23 154.739L932.981 154.234L921.871 169.851ZM987.763 79.6809H963.527L933.487 122.745L903.696 79.6809H878.704L920.866 138.618L877.193 199.568H904.203L987.763 79.6733V79.6809ZM989.275 199.575L955.955 152.47L943.334 169.345L964.532 199.575H989.275Z" fill="white"/>
</svg>
